<svg width="45" height="21" viewBox="0 0 45 21" fill="none" xmlns="http://www.w3.org/2000/svg">
<path d="M31.228 14.375H29.5327V17H28.2905V14.375H22.7358V13.2422L28.1577 5.51562H29.5327V13.1953H31.228V14.375ZM28.2905 13.1953V9.39844C28.2905 8.65365 28.3166 7.8125 28.3687 6.875H28.3062C28.0562 7.375 27.8218 7.78906 27.603 8.11719L24.0327 13.1953H28.2905ZM34.2905 15.1406L34.4077 15.3203C34.2723 15.8411 34.077 16.4453 33.8218 17.1328C33.5666 17.8255 33.3009 18.4688 33.0249 19.0625H32.0483C32.189 18.5208 32.3426 17.8516 32.5093 17.0547C32.6812 16.2578 32.8009 15.6198 32.8687 15.1406H34.2905ZM43.7671 10.4531C43.7671 14.9219 42.0379 17.1562 38.5796 17.1562C37.9754 17.1562 37.4963 17.1042 37.1421 17V15.8828C37.5588 16.0182 38.0327 16.0859 38.564 16.0859C39.814 16.0859 40.7567 15.7005 41.3921 14.9297C42.0327 14.1536 42.3817 12.9661 42.439 11.3672H42.3452C42.0588 11.7995 41.6785 12.1302 41.2046 12.3594C40.7306 12.5833 40.1968 12.6953 39.603 12.6953C38.5926 12.6953 37.7905 12.3932 37.1968 11.7891C36.603 11.1849 36.3062 10.3411 36.3062 9.25781C36.3062 8.07031 36.6369 7.13281 37.2983 6.44531C37.965 5.75781 38.84 5.41406 39.9233 5.41406C40.6994 5.41406 41.3765 5.61458 41.9546 6.01562C42.5379 6.41146 42.9858 6.99219 43.2983 7.75781C43.6108 8.51823 43.7671 9.41667 43.7671 10.4531ZM39.9233 6.52344C39.1785 6.52344 38.603 6.76302 38.1968 7.24219C37.7905 7.72135 37.5874 8.38802 37.5874 9.24219C37.5874 9.99219 37.7749 10.5833 38.1499 11.0156C38.5249 11.4427 39.0952 11.6562 39.8608 11.6562C40.3348 11.6562 40.7697 11.5599 41.1655 11.3672C41.5666 11.1745 41.8817 10.9115 42.1108 10.5781C42.34 10.2448 42.4546 9.89583 42.4546 9.53125C42.4546 8.98438 42.3478 8.47917 42.1343 8.01562C41.9207 7.55208 41.6213 7.1875 41.2358 6.92188C40.8556 6.65625 40.4181 6.52344 39.9233 6.52344Z" fill="#FF862F"/>
<path d="M15.2764 8.28193L10.5439 7.59758L8.42832 3.33013C8.37054 3.21329 8.27548 3.1187 8.15805 3.06121C7.86355 2.91655 7.50567 3.0371 7.35842 3.33013L5.24285 7.59758L0.510317 8.28193C0.379841 8.30047 0.260549 8.36167 0.169216 8.45441C0.0587999 8.56733 -0.00204457 8.71924 5.24622e-05 8.87678C0.00214949 9.03431 0.0670165 9.18457 0.1804 9.29454L3.60445 12.6161L2.7955 17.3064C2.77653 17.4156 2.78867 17.5278 2.83053 17.6304C2.87239 17.733 2.94231 17.8218 3.03235 17.8869C3.12239 17.952 3.22896 17.9906 3.33996 17.9985C3.45096 18.0064 3.56196 17.9831 3.66037 17.9314L7.89337 15.717L12.1264 17.9314C12.2419 17.9926 12.3761 18.013 12.5048 17.9908C12.8291 17.9352 13.0472 17.6291 12.9912 17.3064L12.1823 12.6161L15.6063 9.29454C15.6995 9.20367 15.7611 9.08497 15.7797 8.95515C15.83 8.63059 15.6026 8.33015 15.2764 8.28193Z" fill="#FF862F"/>
</svg>
