<svg width="92" height="34" viewBox="0 0 92 34" fill="none" xmlns="http://www.w3.org/2000/svg">
<path d="M0 0H82.1075L92 16.2273L82.1075 34H0V0Z" fill="#FF862F"/>
<path d="M15.4951 19.1016V17.3926H19.166V19.1016H15.4951ZM29.0098 22H26.8975V16.2168C26.8975 16.0573 26.8997 15.8613 26.9043 15.6289C26.9089 15.3919 26.9157 15.1504 26.9248 14.9043C26.9339 14.6536 26.943 14.4281 26.9521 14.2275C26.902 14.2868 26.7995 14.3893 26.6445 14.5352C26.4941 14.6764 26.3529 14.804 26.2207 14.918L25.0723 15.8408L24.0537 14.5693L27.2734 12.0059H29.0098V22ZM38.7305 17.0029C38.7305 17.8096 38.6667 18.5296 38.5391 19.1631C38.416 19.7965 38.2155 20.3343 37.9375 20.7764C37.6641 21.2184 37.304 21.5557 36.8574 21.7881C36.4108 22.0205 35.8685 22.1367 35.2305 22.1367C34.4284 22.1367 33.7699 21.9339 33.2549 21.5283C32.7399 21.1182 32.3594 20.5303 32.1133 19.7646C31.8672 18.9945 31.7441 18.0739 31.7441 17.0029C31.7441 15.9229 31.8558 15 32.0791 14.2344C32.307 13.4642 32.6761 12.874 33.1865 12.4639C33.6969 12.0537 34.3783 11.8486 35.2305 11.8486C36.028 11.8486 36.6842 12.0537 37.1992 12.4639C37.7188 12.8695 38.1038 13.4574 38.3545 14.2275C38.6051 14.9932 38.7305 15.9183 38.7305 17.0029ZM33.8428 17.0029C33.8428 17.764 33.8838 18.3997 33.9658 18.9102C34.0524 19.416 34.196 19.7965 34.3965 20.0518C34.597 20.307 34.875 20.4346 35.2305 20.4346C35.5814 20.4346 35.8571 20.3092 36.0576 20.0586C36.2627 19.8034 36.4085 19.4229 36.4951 18.917C36.5817 18.4066 36.625 17.7686 36.625 17.0029C36.625 16.2419 36.5817 15.6061 36.4951 15.0957C36.4085 14.5853 36.2627 14.2025 36.0576 13.9473C35.8571 13.6875 35.5814 13.5576 35.2305 13.5576C34.875 13.5576 34.597 13.6875 34.3965 13.9473C34.196 14.2025 34.0524 14.5853 33.9658 15.0957C33.8838 15.6061 33.8428 16.2419 33.8428 17.0029ZM50.3789 17.0029C50.3789 17.8096 50.3151 18.5296 50.1875 19.1631C50.0645 19.7965 49.8639 20.3343 49.5859 20.7764C49.3125 21.2184 48.9525 21.5557 48.5059 21.7881C48.0592 22.0205 47.5169 22.1367 46.8789 22.1367C46.0768 22.1367 45.4183 21.9339 44.9033 21.5283C44.3883 21.1182 44.0078 20.5303 43.7617 19.7646C43.5156 18.9945 43.3926 18.0739 43.3926 17.0029C43.3926 15.9229 43.5042 15 43.7275 14.2344C43.9554 13.4642 44.3245 12.874 44.835 12.4639C45.3454 12.0537 46.0267 11.8486 46.8789 11.8486C47.6764 11.8486 48.3327 12.0537 48.8477 12.4639C49.3672 12.8695 49.7523 13.4574 50.0029 14.2275C50.2536 14.9932 50.3789 15.9183 50.3789 17.0029ZM45.4912 17.0029C45.4912 17.764 45.5322 18.3997 45.6143 18.9102C45.7008 19.416 45.8444 19.7965 46.0449 20.0518C46.2454 20.307 46.5234 20.4346 46.8789 20.4346C47.2298 20.4346 47.5055 20.3092 47.7061 20.0586C47.9111 19.8034 48.057 19.4229 48.1436 18.917C48.2301 18.4066 48.2734 17.7686 48.2734 17.0029C48.2734 16.2419 48.2301 15.6061 48.1436 15.0957C48.057 14.5853 47.9111 14.2025 47.7061 13.9473C47.5055 13.6875 47.2298 13.5576 46.8789 13.5576C46.5234 13.5576 46.2454 13.6875 46.0449 13.9473C45.8444 14.2025 45.7008 14.5853 45.6143 15.0957C45.5322 15.6061 45.4912 16.2419 45.4912 17.0029ZM58.3906 17.0029C58.3906 17.8096 58.3268 18.5296 58.1992 19.1631C58.0762 19.7965 57.8757 20.3343 57.5977 20.7764C57.3242 21.2184 56.9642 21.5557 56.5176 21.7881C56.071 22.0205 55.5286 22.1367 54.8906 22.1367C54.0885 22.1367 53.43 21.9339 52.915 21.5283C52.4001 21.1182 52.0195 20.5303 51.7734 19.7646C51.5273 18.9945 51.4043 18.0739 51.4043 17.0029C51.4043 15.9229 51.516 15 51.7393 14.2344C51.9671 13.4642 52.3363 12.874 52.8467 12.4639C53.3571 12.0537 54.0384 11.8486 54.8906 11.8486C55.6882 11.8486 56.3444 12.0537 56.8594 12.4639C57.3789 12.8695 57.764 13.4574 58.0146 14.2275C58.2653 14.9932 58.3906 15.9183 58.3906 17.0029ZM53.5029 17.0029C53.5029 17.764 53.5439 18.3997 53.626 18.9102C53.7126 19.416 53.8561 19.7965 54.0566 20.0518C54.2572 20.307 54.5352 20.4346 54.8906 20.4346C55.2415 20.4346 55.5173 20.3092 55.7178 20.0586C55.9229 19.8034 56.0687 19.4229 56.1553 18.917C56.2419 18.4066 56.2852 17.7686 56.2852 17.0029C56.2852 16.2419 56.2419 15.6061 56.1553 15.0957C56.0687 14.5853 55.9229 14.2025 55.7178 13.9473C55.5173 13.6875 55.2415 13.5576 54.8906 13.5576C54.5352 13.5576 54.2572 13.6875 54.0566 13.9473C53.8561 14.2025 53.7126 14.5853 53.626 15.0957C53.5439 15.6061 53.5029 16.2419 53.5029 17.0029ZM66.4023 17.0029C66.4023 17.8096 66.3385 18.5296 66.2109 19.1631C66.0879 19.7965 65.8874 20.3343 65.6094 20.7764C65.3359 21.2184 64.9759 21.5557 64.5293 21.7881C64.0827 22.0205 63.5404 22.1367 62.9023 22.1367C62.1003 22.1367 61.4417 21.9339 60.9268 21.5283C60.4118 21.1182 60.0312 20.5303 59.7852 19.7646C59.5391 18.9945 59.416 18.0739 59.416 17.0029C59.416 15.9229 59.5277 15 59.751 14.2344C59.9788 13.4642 60.348 12.874 60.8584 12.4639C61.3688 12.0537 62.0501 11.8486 62.9023 11.8486C63.6999 11.8486 64.3561 12.0537 64.8711 12.4639C65.3906 12.8695 65.7757 13.4574 66.0264 14.2275C66.277 14.9932 66.4023 15.9183 66.4023 17.0029ZM61.5146 17.0029C61.5146 17.764 61.5557 18.3997 61.6377 18.9102C61.7243 19.416 61.8678 19.7965 62.0684 20.0518C62.2689 20.307 62.5469 20.4346 62.9023 20.4346C63.2533 20.4346 63.529 20.3092 63.7295 20.0586C63.9346 19.8034 64.0804 19.4229 64.167 18.917C64.2536 18.4066 64.2969 17.7686 64.2969 17.0029C64.2969 16.2419 64.2536 15.6061 64.167 15.0957C64.0804 14.5853 63.9346 14.2025 63.7295 13.9473C63.529 13.6875 63.2533 13.5576 62.9023 13.5576C62.5469 13.5576 62.2689 13.6875 62.0684 13.9473C61.8678 14.2025 61.7243 14.5853 61.6377 15.0957C61.5557 15.6061 61.5146 16.2419 61.5146 17.0029Z" fill="white"/>
</svg>
