<svg width="45" height="21" viewBox="0 0 45 21" fill="none" xmlns="http://www.w3.org/2000/svg">
<path d="M31.228 14.375H29.5327V17H28.2905V14.375H22.7358V13.2422L28.1577 5.51562H29.5327V13.1953H31.228V14.375ZM28.2905 13.1953V9.39844C28.2905 8.65365 28.3166 7.8125 28.3687 6.875H28.3062C28.0562 7.375 27.8218 7.78906 27.603 8.11719L24.0327 13.1953H28.2905ZM34.2905 15.1406L34.4077 15.3203C34.2723 15.8411 34.077 16.4453 33.8218 17.1328C33.5666 17.8255 33.3009 18.4688 33.0249 19.0625H32.0483C32.189 18.5208 32.3426 17.8516 32.5093 17.0547C32.6812 16.2578 32.8009 15.6198 32.8687 15.1406H34.2905ZM37.7046 17L42.439 6.77344H36.2124V5.57812H43.814V6.61719L39.1421 17H37.7046Z" fill="#FF862F"/>
<path d="M15.1419 8.28193L10.451 7.59758L8.35408 3.33013C8.29681 3.21329 8.20259 3.1187 8.08619 3.06121C7.79428 2.91655 7.43956 3.0371 7.29361 3.33013L5.19667 7.59758L0.505822 8.28193C0.376496 8.30047 0.258254 8.36167 0.167726 8.45441C0.058282 8.56733 -0.00202656 8.71924 5.20001e-05 8.87678C0.00213056 9.03431 0.0664262 9.18457 0.178811 9.29454L3.5727 12.6161L2.77088 17.3064C2.75208 17.4156 2.7641 17.5278 2.8056 17.6304C2.84709 17.733 2.91639 17.8218 3.00564 17.8869C3.09489 17.952 3.20052 17.9906 3.31054 17.9985C3.42056 18.0064 3.53059 17.9831 3.62813 17.9314L7.82384 15.717L12.0196 17.9314C12.1341 17.9926 12.2671 18.013 12.3946 17.9908C12.7161 17.9352 12.9322 17.6291 12.8768 17.3064L12.075 12.6161L15.4689 9.29454C15.5613 9.20367 15.6222 9.08497 15.6407 8.95515C15.6906 8.63059 15.4652 8.33015 15.1419 8.28193Z" fill="#FF862F"/>
</svg>
