<svg width="92" height="34" viewBox="0 0 92 34" fill="none" xmlns="http://www.w3.org/2000/svg">
<path d="M0 0H82.1075L92 16.2273L82.1075 34H0V0Z" fill="#FF862F"/>
<path d="M25.8252 19.1016V17.3926H29.4961V19.1016H25.8252ZM34.0488 17.7549C34.0488 17.1807 34.0898 16.6133 34.1719 16.0527C34.2585 15.4876 34.4066 14.9567 34.6162 14.46C34.8258 13.9587 35.1198 13.5166 35.498 13.1338C35.8763 12.7464 36.3571 12.4434 36.9404 12.2246C37.5238 12.0013 38.2301 11.8896 39.0596 11.8896C39.2555 11.8896 39.4834 11.8988 39.7432 11.917C40.0075 11.9307 40.2262 11.9557 40.3994 11.9922V13.6807C40.2171 13.6396 40.0212 13.6077 39.8115 13.585C39.6064 13.5576 39.4014 13.5439 39.1963 13.5439C38.3669 13.5439 37.7243 13.6761 37.2686 13.9404C36.8174 14.2048 36.4984 14.5716 36.3115 15.041C36.1292 15.5059 36.0221 16.0482 35.9902 16.668H36.0791C36.2067 16.4447 36.3662 16.2464 36.5576 16.0732C36.7536 15.9001 36.9906 15.7633 37.2686 15.6631C37.5465 15.5583 37.8724 15.5059 38.2461 15.5059C38.8294 15.5059 39.3353 15.6312 39.7637 15.8818C40.1921 16.1279 40.5225 16.4857 40.7549 16.9551C40.9873 17.4245 41.1035 17.9964 41.1035 18.6709C41.1035 19.391 40.9645 20.0107 40.6865 20.5303C40.4085 21.0498 40.0143 21.4486 39.5039 21.7266C38.998 22 38.3965 22.1367 37.6992 22.1367C37.1888 22.1367 36.7126 22.0501 36.2705 21.877C35.8285 21.6992 35.4411 21.4303 35.1084 21.0703C34.7757 20.7103 34.516 20.2568 34.3291 19.71C34.1423 19.1585 34.0488 18.5068 34.0488 17.7549ZM37.6582 20.4482C38.0729 20.4482 38.4102 20.307 38.6699 20.0244C38.9297 19.7419 39.0596 19.2998 39.0596 18.6982C39.0596 18.2106 38.9456 17.8278 38.7178 17.5498C38.4945 17.2673 38.1549 17.126 37.6992 17.126C37.3893 17.126 37.1159 17.1966 36.8789 17.3379C36.6465 17.4746 36.4665 17.6501 36.3389 17.8643C36.2113 18.0739 36.1475 18.2904 36.1475 18.5137C36.1475 18.7461 36.1794 18.9762 36.2432 19.2041C36.307 19.432 36.4027 19.6393 36.5303 19.8262C36.6579 20.013 36.8151 20.1634 37.002 20.2773C37.1934 20.3913 37.4121 20.4482 37.6582 20.4482ZM49.0605 17.0029C49.0605 17.8096 48.9967 18.5296 48.8691 19.1631C48.7461 19.7965 48.5456 20.3343 48.2676 20.7764C47.9941 21.2184 47.6341 21.5557 47.1875 21.7881C46.7409 22.0205 46.1986 22.1367 45.5605 22.1367C44.7585 22.1367 44.0999 21.9339 43.585 21.5283C43.07 21.1182 42.6895 20.5303 42.4434 19.7646C42.1973 18.9945 42.0742 18.0739 42.0742 17.0029C42.0742 15.9229 42.1859 15 42.4092 14.2344C42.637 13.4642 43.0062 12.874 43.5166 12.4639C44.027 12.0537 44.7083 11.8486 45.5605 11.8486C46.3581 11.8486 47.0143 12.0537 47.5293 12.4639C48.0488 12.8695 48.4339 13.4574 48.6846 14.2275C48.9352 14.9932 49.0605 15.9183 49.0605 17.0029ZM44.1729 17.0029C44.1729 17.764 44.2139 18.3997 44.2959 18.9102C44.3825 19.416 44.526 19.7965 44.7266 20.0518C44.9271 20.307 45.2051 20.4346 45.5605 20.4346C45.9115 20.4346 46.1872 20.3092 46.3877 20.0586C46.5928 19.8034 46.7386 19.4229 46.8252 18.917C46.9118 18.4066 46.9551 17.7686 46.9551 17.0029C46.9551 16.2419 46.9118 15.6061 46.8252 15.0957C46.7386 14.5853 46.5928 14.2025 46.3877 13.9473C46.1872 13.6875 45.9115 13.5576 45.5605 13.5576C45.2051 13.5576 44.9271 13.6875 44.7266 13.9473C44.526 14.2025 44.3825 14.5853 44.2959 15.0957C44.2139 15.6061 44.1729 16.2419 44.1729 17.0029ZM57.0723 17.0029C57.0723 17.8096 57.0085 18.5296 56.8809 19.1631C56.7578 19.7965 56.5573 20.3343 56.2793 20.7764C56.0059 21.2184 55.6458 21.5557 55.1992 21.7881C54.7526 22.0205 54.2103 22.1367 53.5723 22.1367C52.7702 22.1367 52.1117 21.9339 51.5967 21.5283C51.0817 21.1182 50.7012 20.5303 50.4551 19.7646C50.209 18.9945 50.0859 18.0739 50.0859 17.0029C50.0859 15.9229 50.1976 15 50.4209 14.2344C50.6488 13.4642 51.0179 12.874 51.5283 12.4639C52.0387 12.0537 52.7201 11.8486 53.5723 11.8486C54.3698 11.8486 55.026 12.0537 55.541 12.4639C56.0605 12.8695 56.4456 13.4574 56.6963 14.2275C56.9469 14.9932 57.0723 15.9183 57.0723 17.0029ZM52.1846 17.0029C52.1846 17.764 52.2256 18.3997 52.3076 18.9102C52.3942 19.416 52.5378 19.7965 52.7383 20.0518C52.9388 20.307 53.2168 20.4346 53.5723 20.4346C53.9232 20.4346 54.1989 20.3092 54.3994 20.0586C54.6045 19.8034 54.7503 19.4229 54.8369 18.917C54.9235 18.4066 54.9668 17.7686 54.9668 17.0029C54.9668 16.2419 54.9235 15.6061 54.8369 15.0957C54.7503 14.5853 54.6045 14.2025 54.3994 13.9473C54.1989 13.6875 53.9232 13.5576 53.5723 13.5576C53.2168 13.5576 52.9388 13.6875 52.7383 13.9473C52.5378 14.2025 52.3942 14.5853 52.3076 15.0957C52.2256 15.6061 52.1846 16.2419 52.1846 17.0029Z" fill="white"/>
</svg>
