<svg width="45" height="21" viewBox="0 0 45 21" fill="none" xmlns="http://www.w3.org/2000/svg">
<path d="M31.228 14.375H29.5327V17H28.2905V14.375H22.7358V13.2422L28.1577 5.51562H29.5327V13.1953H31.228V14.375ZM28.2905 13.1953V9.39844C28.2905 8.65365 28.3166 7.8125 28.3687 6.875H28.3062C28.0562 7.375 27.8218 7.78906 27.603 8.11719L24.0327 13.1953H28.2905ZM34.2905 15.1406L34.4077 15.3203C34.2723 15.8411 34.077 16.4453 33.8218 17.1328C33.5666 17.8255 33.3009 18.4688 33.0249 19.0625H32.0483C32.189 18.5208 32.3426 17.8516 32.5093 17.0547C32.6812 16.2578 32.8009 15.6198 32.8687 15.1406H34.2905ZM40.0405 5.41406C41.0822 5.41406 41.9077 5.65625 42.5171 6.14062C43.1265 6.625 43.4312 7.29427 43.4312 8.14844C43.4312 8.71094 43.2567 9.22396 42.9077 9.6875C42.5588 10.151 42.0015 10.5729 41.2358 10.9531C42.1629 11.3958 42.8218 11.862 43.2124 12.3516C43.603 12.8359 43.7983 13.3984 43.7983 14.0391C43.7983 14.987 43.4676 15.7448 42.8062 16.3125C42.1447 16.875 41.2384 17.1562 40.0874 17.1562C38.8687 17.1562 37.9312 16.8906 37.2749 16.3594C36.6187 15.8229 36.2905 15.0651 36.2905 14.0859C36.2905 12.7786 37.0874 11.7604 38.6812 11.0312C37.9624 10.625 37.4468 10.1875 37.1343 9.71875C36.8218 9.24479 36.6655 8.71615 36.6655 8.13281C36.6655 7.30469 36.9702 6.64583 37.5796 6.15625C38.1942 5.66146 39.0145 5.41406 40.0405 5.41406ZM37.5718 14.1172C37.5718 14.7422 37.7879 15.2292 38.2202 15.5781C38.6577 15.9271 39.2697 16.1016 40.0562 16.1016C40.8322 16.1016 41.4364 15.9193 41.8687 15.5547C42.3009 15.1901 42.5171 14.6901 42.5171 14.0547C42.5171 13.5495 42.314 13.1016 41.9077 12.7109C41.5015 12.3151 40.7931 11.9323 39.7827 11.5625C39.0067 11.8958 38.4442 12.2656 38.0952 12.6719C37.7463 13.0729 37.5718 13.5547 37.5718 14.1172ZM40.0249 6.46875C39.3739 6.46875 38.8634 6.625 38.4937 6.9375C38.1239 7.25 37.939 7.66667 37.939 8.1875C37.939 8.66667 38.0926 9.07812 38.3999 9.42188C38.7072 9.76562 39.2749 10.1094 40.103 10.4531C40.8478 10.1406 41.3739 9.80469 41.6812 9.44531C41.9937 9.08594 42.1499 8.66667 42.1499 8.1875C42.1499 7.66146 41.9598 7.24479 41.5796 6.9375C41.2046 6.625 40.6864 6.46875 40.0249 6.46875Z" fill="#FF862F"/>
<path d="M15.2764 8.28193L10.5439 7.59758L8.42832 3.33013C8.37054 3.21329 8.27548 3.1187 8.15805 3.06121C7.86355 2.91655 7.50567 3.0371 7.35842 3.33013L5.24285 7.59758L0.510317 8.28193C0.379841 8.30047 0.260549 8.36167 0.169216 8.45441C0.0587999 8.56733 -0.00204457 8.71924 5.24622e-05 8.87678C0.00214949 9.03431 0.0670165 9.18457 0.1804 9.29454L3.60445 12.6161L2.7955 17.3064C2.77653 17.4156 2.78867 17.5278 2.83053 17.6304C2.87239 17.733 2.94231 17.8218 3.03235 17.8869C3.12239 17.952 3.22896 17.9906 3.33996 17.9985C3.45096 18.0064 3.56196 17.9831 3.66037 17.9314L7.89337 15.717L12.1264 17.9314C12.2419 17.9926 12.3761 18.013 12.5048 17.9908C12.8291 17.9352 13.0472 17.6291 12.9912 17.3064L12.1823 12.6161L15.6063 9.29454C15.6995 9.20367 15.7611 9.08497 15.7797 8.95515C15.83 8.63059 15.6026 8.33015 15.2764 8.28193Z" fill="#FF862F"/>
</svg>
