<svg width="92" height="34" viewBox="0 0 92 34" fill="none" xmlns="http://www.w3.org/2000/svg">
<path d="M0 0H82.1075L92 16.2273L82.1075 34H0V0Z" fill="#FF862F"/>
<path d="M19.501 19.1016V17.3926H23.1719V19.1016H19.501ZM34.7383 16.2715C34.7383 16.8457 34.695 17.4154 34.6084 17.9805C34.5264 18.5456 34.3805 19.0788 34.1709 19.5801C33.9613 20.0768 33.6673 20.5189 33.2891 20.9062C32.9108 21.2891 32.43 21.5898 31.8467 21.8086C31.2633 22.0273 30.557 22.1367 29.7275 22.1367C29.5316 22.1367 29.3014 22.1276 29.0371 22.1094C28.7728 22.0957 28.554 22.0729 28.3809 22.041V20.3457C28.5632 20.3913 28.7568 20.4277 28.9619 20.4551C29.167 20.4779 29.3743 20.4893 29.584 20.4893C30.418 20.4893 31.0605 20.3571 31.5117 20.0928C31.9674 19.8285 32.2865 19.4616 32.4688 18.9922C32.6556 18.5228 32.7627 17.9805 32.79 17.3652H32.708C32.5758 17.584 32.4186 17.7822 32.2363 17.96C32.0586 18.1331 31.8307 18.2721 31.5527 18.377C31.2747 18.4772 30.9215 18.5273 30.4932 18.5273C29.9235 18.5273 29.4268 18.4043 29.0029 18.1582C28.5837 17.9076 28.2578 17.5475 28.0254 17.0781C27.7975 16.6042 27.6836 16.0322 27.6836 15.3623C27.6836 14.6377 27.8203 14.0179 28.0938 13.5029C28.3717 12.9834 28.766 12.5846 29.2764 12.3066C29.7868 12.0286 30.3883 11.8896 31.0811 11.8896C31.5915 11.8896 32.0677 11.9785 32.5098 12.1562C32.9518 12.3294 33.3392 12.596 33.6719 12.9561C34.0091 13.3161 34.2712 13.7718 34.458 14.3232C34.6449 14.8747 34.7383 15.5241 34.7383 16.2715ZM31.1221 13.585C30.7119 13.585 30.377 13.7262 30.1172 14.0088C29.8574 14.2913 29.7275 14.7334 29.7275 15.335C29.7275 15.818 29.8392 16.2008 30.0625 16.4834C30.2858 16.766 30.6253 16.9072 31.0811 16.9072C31.3955 16.9072 31.6689 16.8389 31.9014 16.7021C32.1338 16.5609 32.3138 16.3854 32.4414 16.1758C32.5736 15.9616 32.6396 15.7428 32.6396 15.5195C32.6396 15.2871 32.6077 15.057 32.5439 14.8291C32.4801 14.6012 32.3844 14.3939 32.2568 14.207C32.1292 14.0202 31.9697 13.8698 31.7783 13.7559C31.5915 13.6419 31.3727 13.585 31.1221 13.585ZM46.373 17.0029C46.373 17.8096 46.3092 18.5296 46.1816 19.1631C46.0586 19.7965 45.8581 20.3343 45.5801 20.7764C45.3066 21.2184 44.9466 21.5557 44.5 21.7881C44.0534 22.0205 43.5111 22.1367 42.873 22.1367C42.071 22.1367 41.4124 21.9339 40.8975 21.5283C40.3825 21.1182 40.002 20.5303 39.7559 19.7646C39.5098 18.9945 39.3867 18.0739 39.3867 17.0029C39.3867 15.9229 39.4984 15 39.7217 14.2344C39.9495 13.4642 40.3187 12.874 40.8291 12.4639C41.3395 12.0537 42.0208 11.8486 42.873 11.8486C43.6706 11.8486 44.3268 12.0537 44.8418 12.4639C45.3613 12.8695 45.7464 13.4574 45.9971 14.2275C46.2477 14.9932 46.373 15.9183 46.373 17.0029ZM41.4854 17.0029C41.4854 17.764 41.5264 18.3997 41.6084 18.9102C41.695 19.416 41.8385 19.7965 42.0391 20.0518C42.2396 20.307 42.5176 20.4346 42.873 20.4346C43.224 20.4346 43.4997 20.3092 43.7002 20.0586C43.9053 19.8034 44.0511 19.4229 44.1377 18.917C44.2243 18.4066 44.2676 17.7686 44.2676 17.0029C44.2676 16.2419 44.2243 15.6061 44.1377 15.0957C44.0511 14.5853 43.9053 14.2025 43.7002 13.9473C43.4997 13.6875 43.224 13.5576 42.873 13.5576C42.5176 13.5576 42.2396 13.6875 42.0391 13.9473C41.8385 14.2025 41.695 14.5853 41.6084 15.0957C41.5264 15.6061 41.4854 16.2419 41.4854 17.0029ZM54.3848 17.0029C54.3848 17.8096 54.321 18.5296 54.1934 19.1631C54.0703 19.7965 53.8698 20.3343 53.5918 20.7764C53.3184 21.2184 52.9583 21.5557 52.5117 21.7881C52.0651 22.0205 51.5228 22.1367 50.8848 22.1367C50.0827 22.1367 49.4242 21.9339 48.9092 21.5283C48.3942 21.1182 48.0137 20.5303 47.7676 19.7646C47.5215 18.9945 47.3984 18.0739 47.3984 17.0029C47.3984 15.9229 47.5101 15 47.7334 14.2344C47.9613 13.4642 48.3304 12.874 48.8408 12.4639C49.3512 12.0537 50.0326 11.8486 50.8848 11.8486C51.6823 11.8486 52.3385 12.0537 52.8535 12.4639C53.373 12.8695 53.7581 13.4574 54.0088 14.2275C54.2594 14.9932 54.3848 15.9183 54.3848 17.0029ZM49.4971 17.0029C49.4971 17.764 49.5381 18.3997 49.6201 18.9102C49.7067 19.416 49.8503 19.7965 50.0508 20.0518C50.2513 20.307 50.5293 20.4346 50.8848 20.4346C51.2357 20.4346 51.5114 20.3092 51.7119 20.0586C51.917 19.8034 52.0628 19.4229 52.1494 18.917C52.236 18.4066 52.2793 17.7686 52.2793 17.0029C52.2793 16.2419 52.236 15.6061 52.1494 15.0957C52.0628 14.5853 51.917 14.2025 51.7119 13.9473C51.5114 13.6875 51.2357 13.5576 50.8848 13.5576C50.5293 13.5576 50.2513 13.6875 50.0508 13.9473C49.8503 14.2025 49.7067 14.5853 49.6201 15.0957C49.5381 15.6061 49.4971 16.2419 49.4971 17.0029ZM62.3965 17.0029C62.3965 17.8096 62.3327 18.5296 62.2051 19.1631C62.082 19.7965 61.8815 20.3343 61.6035 20.7764C61.3301 21.2184 60.9701 21.5557 60.5234 21.7881C60.0768 22.0205 59.5345 22.1367 58.8965 22.1367C58.0944 22.1367 57.4359 21.9339 56.9209 21.5283C56.4059 21.1182 56.0254 20.5303 55.7793 19.7646C55.5332 18.9945 55.4102 18.0739 55.4102 17.0029C55.4102 15.9229 55.5218 15 55.7451 14.2344C55.973 13.4642 56.3421 12.874 56.8525 12.4639C57.363 12.0537 58.0443 11.8486 58.8965 11.8486C59.694 11.8486 60.3503 12.0537 60.8652 12.4639C61.3848 12.8695 61.7699 13.4574 62.0205 14.2275C62.2712 14.9932 62.3965 15.9183 62.3965 17.0029ZM57.5088 17.0029C57.5088 17.764 57.5498 18.3997 57.6318 18.9102C57.7184 19.416 57.862 19.7965 58.0625 20.0518C58.263 20.307 58.541 20.4346 58.8965 20.4346C59.2474 20.4346 59.5231 20.3092 59.7236 20.0586C59.9287 19.8034 60.0745 19.4229 60.1611 18.917C60.2477 18.4066 60.291 17.7686 60.291 17.0029C60.291 16.2419 60.2477 15.6061 60.1611 15.0957C60.0745 14.5853 59.9287 14.2025 59.7236 13.9473C59.5231 13.6875 59.2474 13.5576 58.8965 13.5576C58.541 13.5576 58.263 13.6875 58.0625 13.9473C57.862 14.2025 57.7184 14.5853 57.6318 15.0957C57.5498 15.6061 57.5088 16.2419 57.5088 17.0029Z" fill="white"/>
</svg>
