<svg width="45" height="21" viewBox="0 0 45 21" fill="none" xmlns="http://www.w3.org/2000/svg">
<path d="M26.8967 10.0156C27.6728 10.0156 28.3472 10.1484 28.9202 10.4141C29.4931 10.6745 29.9358 11.0547 30.2483 11.5547C30.566 12.0547 30.7249 12.6615 30.7249 13.375C30.7249 14.1562 30.5556 14.8307 30.217 15.3984C29.8785 15.9609 29.3915 16.3958 28.7561 16.7031C28.1207 17.0052 27.3603 17.1562 26.4749 17.1562C25.8811 17.1562 25.329 17.1042 24.8186 17C24.3082 16.8958 23.8785 16.7396 23.5295 16.5312V15.2969C23.9097 15.526 24.3707 15.7083 24.9124 15.8438C25.454 15.9792 25.9801 16.0469 26.4905 16.0469C27.0686 16.0469 27.5738 15.9557 28.0061 15.7734C28.4436 15.5859 28.7821 15.3047 29.0217 14.9297C29.2665 14.5495 29.3889 14.0729 29.3889 13.5C29.3889 12.7396 29.1545 12.1536 28.6858 11.7422C28.2222 11.3255 27.4879 11.1172 26.4827 11.1172C26.1597 11.1172 25.8056 11.1432 25.4202 11.1953C25.0347 11.2474 24.717 11.3047 24.467 11.3672L23.8108 10.9375L24.2483 5.57812H29.928V6.76562H25.3577L25.0686 10.2109C25.2665 10.1693 25.5217 10.1276 25.8342 10.0859C26.1467 10.0391 26.5009 10.0156 26.8967 10.0156ZM34.5061 15.1406L34.6077 15.3203C34.5139 15.7005 34.3941 16.1068 34.2483 16.5391C34.1077 16.9714 33.9514 17.4036 33.7795 17.8359C33.6129 18.2734 33.4436 18.6823 33.2717 19.0625H32.303C32.4124 18.6458 32.5191 18.2057 32.6233 17.7422C32.7275 17.2839 32.8212 16.8307 32.9045 16.3828C32.9931 15.9297 33.0634 15.5156 33.1155 15.1406H34.5061ZM44.1311 11.2734C44.1311 12.2005 44.0608 13.0286 43.9202 13.7578C43.7795 14.487 43.5582 15.1042 43.2561 15.6094C42.954 16.1146 42.5634 16.5 42.0842 16.7656C41.6051 17.026 41.0295 17.1562 40.3577 17.1562C39.5087 17.1562 38.8056 16.9245 38.2483 16.4609C37.6962 15.9974 37.2821 15.3281 37.0061 14.4531C36.7353 13.5729 36.5999 12.513 36.5999 11.2734C36.5999 10.0547 36.7222 9.00781 36.967 8.13281C37.217 7.2526 37.6181 6.57812 38.1702 6.10938C38.7222 5.63542 39.4514 5.39844 40.3577 5.39844C41.217 5.39844 41.9254 5.63281 42.4827 6.10156C43.04 6.5651 43.454 7.23698 43.7249 8.11719C43.9957 8.99219 44.1311 10.0443 44.1311 11.2734ZM37.9045 11.2734C37.9045 12.3359 37.9853 13.2214 38.1467 13.9297C38.3082 14.638 38.5686 15.1693 38.928 15.5234C39.2926 15.8724 39.7691 16.0469 40.3577 16.0469C40.9462 16.0469 41.4202 15.8724 41.7795 15.5234C42.1441 15.1745 42.4071 14.6458 42.5686 13.9375C42.7353 13.2292 42.8186 12.3411 42.8186 11.2734C42.8186 10.2266 42.7379 9.35156 42.5764 8.64844C42.415 7.9401 42.1545 7.40885 41.7952 7.05469C41.4358 6.69531 40.9566 6.51562 40.3577 6.51562C39.7587 6.51562 39.2795 6.69531 38.9202 7.05469C38.5608 7.40885 38.3004 7.9401 38.1389 8.64844C37.9827 9.35156 37.9045 10.2266 37.9045 11.2734Z" fill="#FF862F"/>
<path d="M15.2257 8.28193L10.5089 7.59758L8.40032 3.33013C8.34273 3.21329 8.24799 3.1187 8.13095 3.06121C7.83742 2.91655 7.48074 3.0371 7.33398 3.33013L5.22543 7.59758L0.508622 8.28193C0.378579 8.30047 0.259684 8.36167 0.168654 8.45441C0.0586046 8.56733 -0.00203778 8.71924 5.22879e-05 8.87678C0.00214235 9.03431 0.0667938 9.18457 0.179801 9.29454L3.59248 12.6161L2.78622 17.3064C2.76731 17.4156 2.7794 17.5278 2.82113 17.6304C2.86285 17.733 2.93253 17.8218 3.02228 17.8869C3.11202 17.952 3.21823 17.9906 3.32886 17.9985C3.4395 18.0064 3.55013 17.9831 3.64821 17.9314L7.86715 15.717L12.0861 17.9314C12.2013 17.9926 12.335 18.013 12.4632 17.9908C12.7865 17.9352 13.0038 17.6291 12.9481 17.3064L12.1418 12.6161L15.5545 9.29454C15.6474 9.20367 15.7087 9.08497 15.7273 8.95515C15.7774 8.63059 15.5508 8.33015 15.2257 8.28193Z" fill="#FF862F"/>
</svg>
